<svg width="24" height="30" viewBox="0 0 24 30" fill="none" xmlns="http://www.w3.org/2000/svg">
<path d="M20.075 28.8652L12.6169 26.1393V19.8427C15.4754 19.7684 17.9507 18.895 19.7754 17.3179C21.8616 15.5136 22.9648 12.886 22.9648 9.71853C22.9648 7.04122 21.3718 2.60397 20.0019 0.57351C19.963 0.515852 19.9107 0.468656 19.8496 0.43605C19.7884 0.403445 19.7203 0.386423 19.6511 0.386475H4.78767C4.64751 0.386475 4.51565 0.456661 4.4369 0.57351C3.04249 2.64039 1.42126 7.08561 1.42126 9.71853C1.42126 12.8845 2.53235 15.5125 4.63395 17.3191C6.45674 18.8859 8.92042 19.7555 11.7691 19.8397V26.1075L4.5213 28.8671C4.45923 28.8672 4.39793 28.8809 4.34173 28.9075C4.28553 28.934 4.23581 28.9726 4.19607 29.0207C4.15633 29.0687 4.12755 29.1249 4.11176 29.1853C4.09597 29.2458 4.09355 29.309 4.10468 29.3704C4.11581 29.4319 4.14022 29.4902 4.17617 29.5411C4.21213 29.5921 4.25876 29.6345 4.31276 29.6653C4.36677 29.6961 4.42683 29.7146 4.48871 29.7194C4.55059 29.7243 4.61278 29.7154 4.67087 29.6934H19.9299C20.0297 29.6936 20.1264 29.6584 20.2029 29.5939C20.2795 29.5293 20.331 29.4397 20.3483 29.3407C20.3656 29.2417 20.3477 29.1398 20.2977 29.0528C20.2477 28.9658 20.1688 28.8994 20.075 28.8652ZM5.01561 1.23971H19.4228C20.2042 2.47042 21.0406 4.46256 21.5707 6.38489C20.7852 7.06095 16.9271 9.96247 10.9727 7.56477C6.9375 5.9395 3.62685 6.9938 2.56965 7.4244C3.06133 5.23119 4.07671 2.71361 5.01561 1.23971ZM2.26899 9.71853C2.26899 9.31373 2.31269 8.8596 2.38692 8.38044C2.45888 8.38462 2.53197 8.37741 2.60054 8.34251C2.63634 8.32468 6.21448 6.56813 10.6577 8.35768C12.4462 9.07737 14.064 9.34825 15.4863 9.34825C18.6564 9.34787 20.8515 8.00486 21.7968 7.28972C21.9953 8.17216 22.1166 9.01136 22.1166 9.71815C22.1166 12.6291 21.116 15.0333 19.2223 16.67C17.5484 18.1173 15.2576 18.9193 12.5973 18.9887H11.8362C9.17021 18.9201 6.86968 18.1181 5.18403 16.6696C3.27722 15.0306 2.26899 12.6269 2.26899 9.71853ZM6.99062 28.8398L12.1478 26.8761L17.5205 28.8398H6.99062Z" fill="#E4E4E4"/>
<path d="M10.9207 16.7382C9.77687 16.5675 8.12851 15.9339 7.32148 15.355C5.8438 14.2919 5.09479 12.4151 5.09479 9.77654C5.09479 9.66334 5.05014 9.55478 4.97065 9.47474C4.89116 9.3947 4.78335 9.34973 4.67093 9.34973C4.55852 9.34973 4.45071 9.3947 4.37122 9.47474C4.29173 9.55478 4.24707 9.66334 4.24707 9.77654C4.24707 12.7069 5.11589 14.817 6.82943 16.0496C7.7574 16.7158 9.49994 17.3888 10.7964 17.5827C10.8514 17.591 10.9076 17.5882 10.9616 17.5746C11.0156 17.561 11.0664 17.5368 11.1111 17.5034C11.1558 17.47 11.1935 17.4281 11.222 17.3799C11.2506 17.3318 11.2695 17.2785 11.2775 17.2231C11.2858 17.1676 11.2831 17.1111 11.2697 17.0567C11.2562 17.0023 11.2322 16.9511 11.1991 16.9061C11.1659 16.861 11.1243 16.823 11.0765 16.7942C11.0287 16.7654 10.9758 16.7464 10.9207 16.7382ZM12.5819 17.7515C12.6945 17.7515 12.8042 17.706 12.8829 17.6263C12.9622 17.5463 13.0067 17.4378 13.0067 17.3247C13.0067 17.2117 12.9622 17.1032 12.8829 17.0231C12.7288 16.8638 12.4383 16.8638 12.2839 17.0231C12.2051 17.1028 12.1595 17.2128 12.1595 17.3228C12.1595 17.4359 12.2039 17.5445 12.283 17.6248C12.3621 17.7051 12.4696 17.7506 12.5819 17.7515Z" fill="#E4E4E4"/>
</svg>
