<svg width="38" height="35" viewBox="0 0 38 35" fill="none" xmlns="http://www.w3.org/2000/svg">
<g clip-path="url(#clip0_10_58)">
<path d="M19.7665 22.4409C19.7665 20.7738 21.4909 19.507 23.159 18.2818C23.8255 17.7922 24.4546 17.3299 24.9729 16.8433C27.2106 14.7421 27.1842 12.9178 27.1842 11.4525V11.1382C27.1842 7.78121 24.5867 1.68876 24.4852 1.42764H13.6974C13.596 1.68876 11 7.76224 11 11.1382V11.4525C11 12.9147 10.9728 14.7421 13.2106 16.8433C13.7288 17.33 14.3584 17.7923 15.0248 18.2819C16.6929 19.507 18.4178 20.774 18.4178 22.441V34.2007H12.3487V35.4145H25.8355V34.2007H19.7665V22.4409ZM14.6018 2.64146H23.5808C24.0325 3.85452 25.2253 7.39901 25.6743 9.92435H12.5083C12.9574 7.39901 14.15 3.85452 14.6018 2.64146ZM19.0921 19.7423C18.8419 19.7423 18.6498 19.6725 18.4877 19.5334L18.4882 19.5353C17.746 18.7155 16.7826 18.0061 15.8775 17.3414C15.2439 16.876 14.6454 16.4364 14.1842 16.0034C12.3252 14.2579 12.3358 12.8993 12.347 11.461C12.3479 11.3527 11.5203 14.5833 15.179 17.9861L19.0921 20.4167L22.3053 18.2818C27.1842 15.0694 25.8347 11.3528 25.8356 11.461C25.8468 12.8993 25.8575 14.2579 23.9985 16.0034C23.5372 16.4364 22.9389 16.876 22.3053 17.3414C21.4002 18.0061 20.4369 18.7156 19.6948 19.5353L19.6957 19.5334C19.5336 19.6725 19.345 19.7423 19.0921 19.7423Z" fill="#DAFFF4"/>
</g>
<defs>
<clipPath id="clip0_10_58">
<rect width="38" height="35" fill="white"/>
</clipPath>
</defs>
</svg>
