<?xml version="1.0" encoding="iso-8859-1"?>
<!-- Generator: Adobe Illustrator 19.0.0, SVG Export Plug-In . SVG Version: 6.00 Build 0)  -->
<svg version="1.1" id="Layer_1" xmlns="http://www.w3.org/2000/svg " xmlns:xlink="http://www.w3.org/1999/xlink" x="0px" y="0px"
	 viewBox="0 0 505.143 505.143" style="enable-background:new 0 0 505.143 505.143;" xml:space="preserve" fill="#fff">
<g transform="translate(1 1)">
	<g>
		<path d="M410.861,269.981c4.295-4.273,7.707-9.536,9.853-15.438c3.657-10.057,2.743-21.029-1.829-31.086l-0.914-1.829
			c-4.571-9.143-12.8-16.457-22.857-20.114c-1.696-0.617-3.42-1.093-5.16-1.454c4.372-7.179,6.988-15.204,6.988-23.232
			c0-10.971-4.571-21.943-11.886-29.257c-5.486-5.486-12.8-9.143-21.029-10.971l66.743-66.743
			c7.314-8.229,11.886-18.286,11.886-29.257c0-10.971-3.657-21.943-11.886-29.257c-16.457-16.457-42.057-16.457-58.514,0
			L190.314,193.286c-31.086-4.571-46.629,8.229-66.743,28.343l-0.914,0.914C95.229,249.971,94.314,290.2,94.314,303l-22.857,22.857
			c-14.629,13.714-14.629,36.571,0,51.2l117.029,116.114c7.314,7.314,16.457,10.971,25.6,10.971c9.143,0,18.286-3.657,25.6-10.971
			l23.771-22.857c43.886-6.4,53.943-15.543,98.743-60.343c23.771-23.771,44.8-57.6,50.286-66.743
			c0.071-0.042,0.138-0.087,0.208-0.13c19.513-10.638,26.889-34.362,17.164-53.813C425.633,280.454,418.824,273.89,410.861,269.981z
			 M318.314,282.886c16.457-7.314,28.343-30.171,25.6-48.457l28.343-13.714c4.571-2.743,10.971-2.743,16.457-0.914
			c5.486,1.829,10.057,5.486,12.8,10.971l0.914,1.829c1.357,2.262,2.041,4.972,2.166,7.798c-0.089,2.306-0.522,4.641-1.251,6.831
			c-1.829,5.486-5.486,10.057-10.971,12.8L375,268.257c-1.908,0.763-3.33,2.168-4.216,3.873l-81.711,39.617
			c-10.034,2.974-20.728-1.714-25.616-11.49l-0.914-1.829c-0.914-1.829-1.829-2.743-1.829-4.571
			C285.4,291.114,306.429,286.543,318.314,282.886z M293.629,330.429l90.514-43.886c6.264-3.654,13.42-3.429,19.43-0.525
			c3.747,2.447,6.849,5.539,8.913,9.668c2.743,5.486,2.743,11.886,0.914,17.371c-1.829,6.4-5.486,10.971-11.886,13.714
			c-1.285,0.642-2.115,1.292-2.814,2.251l-85.872,41.635c-10.971,6.4-24.686,0.914-30.171-10.057
			C276.257,349.629,281.743,335.914,293.629,330.429z M371.343,159.457c4.571,4.571,7.314,10.057,7.314,16.457
			s-1.829,11.886-6.4,16.457l-2.743,2.743l-16.457,12.8c-0.494,0.37-0.933,0.794-1.325,1.253L329.286,219.8
			c-0.211,0.127-0.41,0.261-0.609,0.396c-6.422-5.334-16.055-10.237-30.476-13.196c-1.776-0.355-3.853-0.737-6.174-1.14
			l47.317-47.317c4.571-3.657,10.057-5.486,15.543-5.486C361.286,153.057,366.771,154.886,371.343,159.457z M385.057,24.143
			c4.571-3.657,10.057-6.4,16.457-6.4c6.4,0,11.886,2.743,16.457,6.4c3.657,4.571,6.4,10.057,6.4,16.457
			c0,6.4-2.743,11.886-8.229,15.543l-89.6,89.6l-0.914,0.914l-54.857,54.857c-0.289,0.289-0.547,0.594-0.791,0.904
			c-16.361-2.38-36.246-5.023-54.852-7.438L385.057,24.143z M349.4,396.257c-44.8,45.714-50.286,50.286-91.429,55.771
			c-1.829,0.914-3.657,1.829-5.486,3.657l-25.6,24.686c-7.314,6.4-18.286,7.314-25.6,0L84.257,363.343
			c-7.314-7.314-7.314-18.286,0-25.6l26.514-25.6c1.829-1.829,2.743-4.571,2.743-7.314c0,0-3.657-42.057,21.943-69.486
			c21.029-20.114,31.086-28.343,57.6-23.771h0.914l15.543,1.829c1.375,0.229,2.635,0.113,3.766-0.261
			c33.261,4.198,67.774,9.114,82.176,12.147c17.371,3.657,27.429,10.057,28.343,19.2c0.31,2.479-0.13,5.059-1.148,7.534
			c-0.899,1.826-1.946,3.566-3.113,5.154c-2.207,2.693-5.132,4.997-8.54,6.512c-30.171,13.714-119.771,18.286-139.886,10.057
			c-4.571-1.829-10.057,0.914-11.886,5.486c-1.829,4.571,0.914,10.057,5.486,11.886c8.229,3.657,25.6,5.486,45.714,5.486
			c10.184,0,21.012-0.39,31.817-1.162c0.565,3.834,1.495,7.443,2.926,10.304l0.914,1.829c4.869,9.738,12.986,16.62,22.18,20.146
			c-8.212,11.843-9.777,27.518-2.98,41.111c7.314,14.629,21.943,22.857,37.486,22.857c6.4,0,11.886-1.829,17.371-3.657
			l59.612-28.903C371.287,371.217,360.606,385.051,349.4,396.257z"/>
	</g>
</g>
<g>
</g>
<g>
</g>
<g>
</g>
<g>
</g>
<g>
</g>
<g>
</g>
<g>
</g>
<g>
</g>
<g>
</g>
<g>
</g>
<g>
</g>
<g>
</g>
<g>
</g>
<g>
</g>
<g>
</g>
</svg>
